# xmcd
#
# Track frame offsets:
#	150
#	11836
#	23071
#	33668
#	43911
#	56502
#	67522
#	80985
#	91367
#	102194
#	111915
#	124164
#	137206
#	148709
#	159226
#	172795
#	187618
#	202189
#	213008
#	222947
#
# Disc length: 3134 seconds
#
# Revision: 1
# Processed by: cddbd v1.5.2PL0 Copyright (c) Steve Scherf et al.
# Submitted via: audiograbber 1.81.03
#
DISCID=160c3c14
DTITLE=The Champion Records Story - Volume 1 Blues and Rhythm
DYEAR=2007
DGENRE=Blues
TTITLE0=Gene Allison - Somebody Somewhere
TTITLE1=Gene Allison - You're My Baby
TTITLE2=Larry Birdsong - Oo Wee Honey
TTITLE3=Larry Birdsong - Let's Try It Again
TTITLE4=Earl Gaines - Three Times Seven
TTITLE5=Earl Gaines - Best Of Luck Baby
TTITLE6=Earl Gaines - Sittin' Here Drinkin'
TTITLE7=Christine Kittrell - I'm Just What You're Looking For
TTITLE8=Christine Kittrell - I Thank Him
TTITLE9=Jimmy Beck - Blue Night
TTITLE10=Little Ike - Am I Losing You
TTITLE11=Johnny Bridgeforth - Blue Organ
TTITLE12=Al "Murfreesboro" Garner - Real Good Man
TTITLE13=Ted Jarrett and The Daddy Dean Orchestra - Love Me A Long Long Time
TTITLE14=Ted Jarret and The Daddy Dean Orchestra - The Road
TTITLE15=Clenest Gant and Don Q - I Can't Stand To See You Go
TTITLE16=Clenest Gant and Don Q - Love Me Always
TTITLE17=Cliff Butler - Fool
TTITLE18=Herbert Hunter - I'm So Satisfied
TTITLE19=Rudy Green - Hurry Hurry
EXTD=
EXTT0=
EXTT1=
EXTT2=
EXTT3=
EXTT4=
EXTT5=
EXTT6=
EXTT7=
EXTT8=
EXTT9=
EXTT10=
EXTT11=
EXTT12=
EXTT13=
EXTT14=
EXTT15=
EXTT16=
EXTT17=
EXTT18=
EXTT19=
PLAYORDER=
